# xmcd
#
# Track frame offsets:
#	150
#	22006
#	44268
#	58761
#	81377
#	96103
#	113296
#	149507
#	170398
#	178197
#	210140
#
# Disc length: 2839 seconds
#
# Revision: 1
# Processed by: cddbd v1.5.2PL0 Copyright (c) Steve Scherf et al.
# Submitted via: audiograbber 1.83.01
#
DISCID=8f0b150b
DTITLE=Driftin' Duke and The Boxcar Company - Who's Driving The Train?
DYEAR=2019
DGENRE=Country/Blues
TTITLE0=What Have I Done?
TTITLE1=Don't Worry Baby
TTITLE2=Travelin' Man's Woman
TTITLE3=Life, For So Short A While
TTITLE4=Please, Hold My Hand
TTITLE5=Find A Better Way
TTITLE6=A Happy Man
TTITLE7=Carry Me Down To The River
TTITLE8=A New Day Begins
TTITLE9=On The Road
TTITLE10=Let Love Guide The Way
EXTD=Composer: John A Lewis
EXTT0=
EXTT1=
EXTT2=
EXTT3=
EXTT4=
EXTT5=
EXTT6=
EXTT7=
EXTT8=
EXTT9=
EXTT10=
PLAYORDER=
